<svg xmlns="http://www.w3.org/2000/svg" x="0px" y="0px" viewBox="0 0 864 864" enable-background="new 0 0 864 864"><style>.ls0{fill:#FEFBEA}</style><g><g><path class="ls0" d="M263.8,356.3l-43.9,43.9l-9.3,9.3h-57.6c3.7-47.3,19.2-92.2,45-131.3l-37.6-24.7 c-29.8,45.3-48.6,98.6-52.6,155.9c-0.5,7.4-0.8,14.9-0.8,22.5s0.3,15.1,0.8,22.5c3.9,57.3,22.7,110.6,52.6,155.9l37.6-24.7 c-25.8-39.1-41.3-84-45-131.3h57.6l9.3,9.3l43.9,43.9v202.3c14.3,8.7,29.4,16.3,45,22.7V489.1l-34.6-34.6l-10.4-10.4L251.7,432 l57.1-57.1V131.2c-15.6,6.4-30.7,14-45,22.7V356.3z"/></g><g><path class="ls0" d="M492.8,651.8l-60,60l-61.7-61.7V112.7c-15.4,2.9-30.4,6.9-45,12v544.2l45,45l29.9,29.8l12.8,12.8h0 c12.9,0.7,25.7,0.7,38.1-0.1l12.7-12.7l28.2-28.2l13.4-13.4l31.6-31.6V124.7c-14.6-5-29.6-9-45-12V651.8z"/></g><g><path class="ls0" d="M727.1,295.6c-6.8-14.7-14.6-28.7-23.4-42.1l-37.6,24.7c7.7,11.6,14.4,23.7,20.2,36.2 c13.8,29.7,22.2,61.8,24.8,95c0.6,7.4,0.9,14.9,0.9,22.5s-0.3,15.1-0.9,22.5c-0.9,11.3-2.4,22.4-4.7,33.4 c-49.8-88.2-14.8-26.3-44.3-78.4H646c-65.2,206.5-23,72.8-42.7,135.1l-3.2,10V153.9c-14.3-8.7-29.4-16.3-45-22.7v595.1l8.8,2.8 c11.7-5.2,23-11,33.8-17.5l2.4-7.5l20.6-65.3l21.6-68.5l11.3-35.8l9.8-31l24.2,42.8v0l3,5.3l23.5,41.6c4.6-8.1,8.9-16.3,12.8-24.8 c3.8-8.3,7.3-16.8,10.5-25.4c10.1-27.9,16.5-57.6,18.7-88.4c0.5-7.4,0.8-14.9,0.8-22.5s-0.3-15.1-0.8-22.5 C753.5,369.1,743.3,330.7,727.1,295.6z"/></g></g></svg>